<svg id="图层_1" data-name="图层 1" xmlns="http://www.w3.org/2000/svg" viewBox="0 0 456.72 104.07"><defs><style>.cls-1,.cls-5{fill:#fa6058;stroke:#7a2d2d;}.cls-1,.cls-2,.cls-3,.cls-4,.cls-5,.cls-6,.cls-7,.cls-8,.cls-9{stroke-miterlimit:10;}.cls-1{stroke-width:3px;}.cls-2{fill:#fea501;stroke:#d65607;}.cls-2,.cls-3,.cls-4,.cls-5,.cls-6,.cls-7,.cls-9{stroke-width:4px;}.cls-3{fill:#fdeb7b;stroke:#e79a42;}.cls-4{fill:#1ad6fc;stroke:#0c75d5;}.cls-6{fill:#c6a9fb;stroke:#734ccd;}.cls-7,.cls-8{fill:#2d96ff;stroke:#0d57c0;}.cls-8{stroke-width:5px;}.cls-9{fill:#8ccc52;stroke:#029344;}</style></defs><path class="cls-1" d="M21.42,17V88.55H59.81s17.17-17,0-33.64c0,0,14-24.37-1.6-37.91Z" transform="translate(-19.92 -11.93)"/><path d="M81,37.47" transform="translate(-19.92 -11.93)"/><rect class="cls-2" x="56.08" y="5.07" width="15.9" height="72" rx="5"/><ellipse class="cls-3" cx="101.45" cy="54.57" rx="20.62" ry="22.5"/><rect class="cls-4" x="197.08" y="32.07" width="24" height="17"/><path class="cls-4" d="M219,91c-4-.13-12.12,1.28-12-5V19c-.12-6.23,8-4.94,12-5a5,5,0,0,1,5,5V86A5,5,0,0,1,219,91Z" transform="translate(-19.92 -11.93)"/><path class="cls-4" d="M245,91c-4-.13-12.12,1.28-12-5V19c-.12-6.23,8-4.94,12-5a5,5,0,0,1,5,5V86A5,5,0,0,1,245,91Z" transform="translate(-19.92 -11.93)"/><path class="cls-5" d="M335.43,44.66h0a0,0,0,0,1,0,0V97.07a5,5,0,0,1-5,5h-4.35a5,5,0,0,1-5-5V59a14.35,14.35,0,0,1,14.35-14.35Z"/><path class="cls-6" d="M475.72,47.3s-16.76,1.59-20,12.77S453.37,92,453.37,92H468V63.72s3.73-3,7.72-.91" transform="translate(-19.92 -11.93)"/><path class="cls-7" d="M307,66c0,6.92-27.39,11.09-7.62,17.54S289.33,90,283,90a24,24,0,1,1,24-24Z" transform="translate(-19.92 -11.93)"/><path class="cls-8" d="M444.38,69.31c0,6.92-27.39,11.08-7.62,17.54s-10.05,6.46-16.38,6.46a24,24,0,1,1,24-24Z" transform="translate(-19.92 -11.93)"/><path class="cls-9" d="M150.38,67.31c0,6.92,27.39,11.08,7.62,17.54s10.05,6.46,16.38,6.46a24,24,0,1,0-24-24Z" transform="translate(-19.92 -11.93)"/><rect class="cls-6" x="296.13" y="5.07" width="15.9" height="72" rx="5"/><ellipse class="cls-5" cx="344.57" cy="56.31" rx="23.13" ry="25.24"/></svg>