<svg t="1708585511098" class="icon" viewBox="0 0 1024 1024" version="1.1" xmlns="http://www.w3.org/2000/svg" p-id="22398" width="200" height="200"><path d="M512 416a96 96 0 1 1-96 96 96 96 0 0 1 96-96m0-64a160 160 0 1 0 160 160 160 160 0 0 0-160-160z" fill="#2c3e50" p-id="22399"></path><path d="M512 298.88c188.64 0 288 113.92 366.72 213.12C800 611.36 700.64 725.12 512 725.12S224 611.36 145.28 512C224 412.64 323.36 298.88 512 298.88m0-64C264.64 234.88 147.52 406.56 64 512c83.52 105.44 200.64 277.12 448 277.12S876.48 617.44 960 512c-83.52-105.44-200.64-277.12-448-277.12z" fill="#2c3e50" p-id="22400"></path></svg>