<svg id="图层_1" data-name="图层 1" xmlns="http://www.w3.org/2000/svg" viewBox="0 0 171.43 171.43"><defs><style>.cls-1{fill:#008cff;}</style></defs><path class="cls-1" d="M167.67,14.29a18,18,0,0,1,18,18h0V167.67a18,18,0,0,1-18,18H32.33a18,18,0,0,1-18-18h0V32.33a18,18,0,0,1,18-18Zm-28.82,40.6H126.33a6.35,6.35,0,0,0-6.25,6.44v2.58H101.29l-.9,0C94.41,64.48,90,70.2,90,76.8V93.28L78.85,81.77a6.13,6.13,0,0,0-8.67-.17l-.18.17L56.72,95.44a6.6,6.6,0,0,0,0,9.12L70,118.23a6.13,6.13,0,0,0,8.67.17l.18-.17L90,106.72V123.2l0,1c.43,6.51,5.1,11.91,11.23,11.91h18.79v2.58a6.35,6.35,0,0,0,6.25,6.44h12.52a6.34,6.34,0,0,0,6.26-6.44V125.78a6.35,6.35,0,0,0-6.26-6.44H126.33a6.35,6.35,0,0,0-6.25,6.44H101.29l-.21-.06a2.88,2.88,0,0,1-1-2.52V76.8l0-.65c.18-1.22.81-1.93,1.2-1.93h18.79l0,.76a6.32,6.32,0,0,0,6.21,5.68h12.52a6.35,6.35,0,0,0,6.26-6.44V61.33A6.35,6.35,0,0,0,138.85,54.89Z" transform="translate(-14.29 -14.29)"/></svg>