<svg t="1708780558526" class="icon" viewBox="0 0 1024 1024" version="1.1" xmlns="http://www.w3.org/2000/svg" p-id="13958" width="200" height="200"><path d="M183.552 742.4H153.6A76.8 76.8 0 0 1 76.8 665.6V204.8A76.8 76.8 0 0 1 153.6 128h614.4A76.8 76.8 0 0 1 844.8 204.8v25.6h25.6A76.8 76.8 0 0 1 947.2 307.2v409.6a76.8 76.8 0 0 1-76.8 76.8h-100.0448a25.6 25.6 0 0 1 0-51.2H870.4a25.6 25.6 0 0 0 25.6-25.6V307.2a25.6 25.6 0 0 0-25.6-25.6H256a25.6 25.6 0 0 0-25.6 25.6v409.6a25.6 25.6 0 0 0 25.6 25.6h315.0336l214.528 158.6176a25.6 25.6 0 1 1-30.4128 41.1648L554.1376 793.6H256a76.8 76.8 0 0 1-72.448-51.2zM793.6 230.4V204.8a25.6 25.6 0 0 0-25.6-25.6H153.6a25.6 25.6 0 0 0-25.6 25.6v460.8a25.6 25.6 0 0 0 25.6 25.6h25.6V307.2A76.8 76.8 0 0 1 256 230.4h537.6z m-409.6 322.56a40.96 40.96 0 1 1 0-81.92 40.96 40.96 0 0 1 0 81.92z m179.2 0a40.96 40.96 0 1 1 0-81.92 40.96 40.96 0 0 1 0 81.92z m179.2 0a40.96 40.96 0 1 1 0-81.92 40.96 40.96 0 0 1 0 81.92z" fill="#4b97ff" p-id="13959"></path></svg>