<svg id="图层_1" data-name="图层 1" xmlns="http://www.w3.org/2000/svg" viewBox="0 0 171.43 171.43"><defs><style>.cls-1{fill:#008cff;}.cls-2{fill:#fff;}</style></defs><path class="cls-1" d="M167.19,14.18a18,18,0,0,1,18.05,18h0V167.56a18,18,0,0,1-18.05,18.05H31.85a18,18,0,0,1-18-18.05h0V32.22a18,18,0,0,1,18-18Z" transform="translate(-13.81 -14.18)"/><path class="cls-2" d="M148.55,158.7H46.91A5,5,0,0,1,42,153.75V62.39a5,5,0,0,1,4.95-5H93.42a5,5,0,1,1,0,9.9H51.86V148.8H143.6V115.14a5,5,0,0,1,9.91,0v38.61a5,5,0,0,1-5,4.95Z" transform="translate(-13.81 -14.18)"/><path class="cls-2" d="M84.41,131.25a4.94,4.94,0,0,1-4.86-5.85l4-21.45a4.91,4.91,0,0,1,1.39-2.6L144.89,42.1a5,5,0,0,1,7,0l16.66,16.66A4.92,4.92,0,0,1,170,62.29a5,5,0,0,1-1.47,3.51L108.58,125a5,5,0,0,1-2.37,1.3l-20.68,4.79A5.4,5.4,0,0,1,84.41,131.25Zm8.6-24-2.34,12.48L102.61,117,158,62.25l-9.66-9.67L93,107.29Z" transform="translate(-13.81 -14.18)"/></svg>