<svg xmlns="http://www.w3.org/2000/svg" viewBox="0 0 486.06 476.5"><defs><style>.cls-1{fill:#fce3c3;}.cls-2,.cls-4,.cls-5,.cls-6,.cls-7,.cls-8,.cls-9{stroke:#000;stroke-miterlimit:10;}.cls-3{fill:#f9a141;}.cls-4{fill:#13174e;}.cls-4,.cls-5,.cls-6,.cls-7,.cls-8,.cls-9{stroke-width:4px;}.cls-5{fill:#ee556e;}.cls-6{fill:#fedba4;}.cls-7{fill:#fcb94e;}.cls-8{fill:#fee2d6;}.cls-9{fill:#5c1611;}</style></defs><g id="图层_1" data-name="图层 1"><path class="cls-1" d="M48.2,108.93s36.52,84.06,0,132.38H411.83V108.93Z" transform="translate(-11.5 -7.23)"/><path class="cls-2" d="M393.63,98.71H12v16.65H393.63s25,54.3,0,116.87H12V253H404.74s42.19-63.92,5.93-154.27Z" transform="translate(-11.5 -7.23)"/><rect class="cls-3" x="132.58" y="133.42" width="167.24" height="19.22"/><rect class="cls-3" x="219.09" y="168.02" width="167.24" height="19.22"/><path class="cls-1" d="M119.88,280s36.52,84.06,0,132.38H483.51V280Z" transform="translate(-11.5 -7.23)"/><path class="cls-2" d="M465.31,269.8H83.68v16.65H465.31s25,54.3,0,116.87H83.68v20.75H476.42s42.2-63.92,5.93-154.27Z" transform="translate(-11.5 -7.23)"/><rect class="cls-3" x="204.27" y="304.51" width="167.24" height="19.22"/><rect class="cls-3" x="290.77" y="339.11" width="167.24" height="19.22"/></g><g id="图层_2" data-name="图层 2"><rect class="cls-4" x="94.13" y="81.67" width="123.03" height="44.55" rx="4.98" transform="translate(-42.27 79.96) rotate(-28.6)"/><path class="cls-5" d="M86,28.49h91.5a10,10,0,0,1,10,10V91.92a0,0,0,0,1,0,0H76a0,0,0,0,1,0,0V38.49a10,10,0,0,1,10-10Z" transform="translate(-24.24 63.21) rotate(-28.6)"/><rect class="cls-6" x="186.21" y="118.42" width="55.75" height="301.81" transform="translate(-114.31 128.12) rotate(-28.6)"/><rect class="cls-7" x="235.15" y="91.74" width="55.75" height="301.81" transform="translate(-95.56 148.3) rotate(-28.6)"/><polygon class="cls-8" points="347.89 472.83 347.89 362.41 255.06 413.02 347.89 472.83"/><polygon class="cls-9" points="345.48 466.75 346.7 416.7 302.74 440.67 345.48 466.75"/></g></svg>