<svg t="1705470200591" class="icon" viewBox="0 0 1024 1024" version="1.1" xmlns="http://www.w3.org/2000/svg" p-id="9163" width="200" height="200"><path d="M17.066667 17.066667h989.866666v989.866666H17.066667z" fill="#F8FAFC" p-id="9164"></path><path d="M541.047467 273.408l-38.229334 41.915733H266.410667a17.373867 17.373867 0 0 0-17.7152 14.882134v315.562666l173.2608-200.226133 0.068266-0.034133a5.0176 5.0176 0 0 1 6.894934-0.068267l23.176533 22.084267 83.626667 84.8896a15.940267 15.940267 0 0 1 0.682666 21.640533L375.944533 750.933333H243.780267C222.344533 750.933333 204.8 734.208 204.8 713.728V310.613333c0-20.992 16.9984-37.205333 38.263467-37.205333h297.984zM780.970667 273.066667C802.2016 273.066667 819.2 289.314133 819.2 309.930667v402.432c0 20.992-16.9984 37.205333-38.263467 37.205333h-304.366933l161.553067-177.186133c5.3248-6.7584 5.3248-15.906133-0.682667-21.640534l-40.413867-41.2672 6.0416-4.744533c6.007467-3.720533 10.990933-7.099733 17.7152-7.099733a23.210667 23.210667 0 0 1 17.7152 7.7824l137.1136 140.014933-0.682666-315.835733c-0.750933-9.1136-8.192-14.574933-17.749334-14.574934h-141.7216S651.3664 274.6368 652.629333 273.066667z m-121.173334 72.362666c36.488533 0 65.877333 28.091733 65.877334 62.907734s-29.3888 62.907733-65.877334 62.907733c-36.522667 0-65.911467-28.0576-65.911466-62.907733 0-34.816 29.3888-62.907733 65.877333-62.907734z" fill="#D5DADE" p-id="9165"></path></svg>