<svg t="1708778334360" class="icon" viewBox="0 0 1393 1024" version="1.1" xmlns="http://www.w3.org/2000/svg" p-id="6524" width="200" height="200"><path d="M637.05633 912.554093H163.502876a54.439859 54.439859 0 0 1-51.87367-71.120085 420.03009 420.03009 0 0 1 399.042333-284.113742 407.199147 407.199147 0 0 1 234.073064 73.319676 54.439859 54.439859 0 1 0 62.321724-89.266705 517.27031 517.27031 0 0 0-108.604769-57.922544 277.148373 277.148373 0 0 0 90.091551-182.84094 294.836745 294.836745 0 0 0-19.063116-126.018192 277.606621 277.606621 0 1 0-445.417028 307.759337A523.502482 523.502482 0 0 0 7.973515 808.073556a163.319577 163.319577 0 0 0 155.80431 213.360255h473.278505a54.439859 54.439859 0 0 0 0-108.879718zM511.862984 109.2454A168.726903 168.726903 0 1 1 343.136081 278.063952a168.910202 168.910202 0 0 1 168.726903-168.818552z" fill="#7B5CFF" p-id="6525"></path><path d="M1370.802981 516.902795a54.439859 54.439859 0 0 0-75.977514 12.555994L1026.475456 904.30563a31.069212 31.069212 0 0 1-44.725002 2.29124l-174.13423-166.802262a54.439859 54.439859 0 0 0-75.427616 78.543703l174.134229 166.98556a140.315529 140.315529 0 0 0 96.598673 38.584479h9.164959a140.315529 140.315529 0 0 0 99.806408-51.96532l1.832992-2.382889 269.449807-376.313234a54.439859 54.439859 0 0 0-12.372695-76.344112z" fill="#7B5CFF" p-id="6526"></path></svg>