<svg id="图层_1" data-name="图层 1" xmlns="http://www.w3.org/2000/svg" viewBox="0 0 171.43 171.43"><defs><style>.cls-1{fill:#008cff;}.cls-2{fill:#fff;}</style></defs><path class="cls-1" d="M167.67,14.29a18,18,0,0,1,18,18h0V167.67a18,18,0,0,1-18,18H32.33a18,18,0,0,1-18-18h0V32.33a18,18,0,0,1,18-18Z" transform="translate(-14.29 -14.29)"/><path class="cls-2" d="M157.14,96.46a57.14,57.14,0,1,0-75.22,54.25c2.9.55,3.91-1.23,3.91-2.8,0-1.33,0-5.8-.12-10.6,0,0-15.85,3.46-19.2-6.8,0,0-2.56-6.59-6.36-8.26,0,0-5.14-3.57.45-3.57a11.91,11.91,0,0,1,8.71,5.91c5,8.82,13.39,6.25,16.63,4.8.55-3.68,2-6.25,3.68-7.7-12.72-1.45-26.11-6.36-26.11-28.23a21.94,21.94,0,0,1,5.91-15.3c-.56-1.45-2.56-7.25.56-15.18,4.8-1.45,15.73,5.92,15.73,5.92A50.75,50.75,0,0,1,100,67a50.75,50.75,0,0,1,14.29,1.9S125.22,61.53,130,63c3.13,7.93,1.12,13.73.56,15.18a21.94,21.94,0,0,1,5.91,15.3c0,22-13.39,26.78-26.11,28.23,2,1.79,3.91,5.24,3.91,10.6,0,7.59-.12,13.73-.12,15.63,0,1.56,1,3.35,3.91,2.79a57.26,57.26,0,0,0,39.06-54.24Z" transform="translate(-14.29 -14.29)"/></svg>