<svg id="图层_1" data-name="图层 1" xmlns="http://www.w3.org/2000/svg" viewBox="0 0 171.43 171.43"><defs><style>.cls-1{fill:#008cff;}.cls-2{fill:#fff;}</style></defs><path class="cls-1" d="M167.67,13.61a18,18,0,0,1,18,18.05h0V167a18,18,0,0,1-18,18H32.33a18,18,0,0,1-18-18h0V31.66a18,18,0,0,1,18-18Z" transform="translate(-14.29 -13.61)"/><path class="cls-2" d="M131.12,71.38a31.06,31.06,0,0,0-31.55-31A31.42,31.42,0,0,0,69.05,69.12a30.94,30.94,0,0,0,23,32.25h0v43.78a4,4,0,0,0,1,2.7l8.9,9.75a2.21,2.21,0,0,0,3.28,0l12.82-14a2.46,2.46,0,0,0-.07-3.4l-6.55-6.55a2.68,2.68,0,0,1,0-3.75l7-7.05a3.47,3.47,0,0,0,0-4.93l-8.48-8.47a4.37,4.37,0,0,1-1.27-3.08v-5.15a31.08,31.08,0,0,0,22.27-29.85ZM100.05,57.5a7.93,7.93,0,1,1-7.93,7.92A8,8,0,0,1,100.05,57.5Z" transform="translate(-14.29 -13.61)"/></svg>