<svg id="图层_1" data-name="图层 1" xmlns="http://www.w3.org/2000/svg" viewBox="0 0 171.34 171.38"><defs><style>.cls-1{fill:#008cff;}.cls-2{fill:#fff;}</style></defs><path class="cls-1" d="M153.38,0a18,18,0,0,1,18,18h0V153.4a18,18,0,0,1-18,18H18a18,18,0,0,1-18-18H0V18.06a18,18,0,0,1,18-18Z" transform="translate(-0.04 -0.02)"/><path class="cls-2" d="M85.72,90.18a37.73,37.73,0,1,1,26.67-11.05A37.5,37.5,0,0,1,85.72,90.18Zm0-65.22a27.5,27.5,0,1,0,27.49,27.49A27.52,27.52,0,0,0,85.72,25Z" transform="translate(-0.04 -0.02)"/><path class="cls-2" d="M136.15,141.67a5.12,5.12,0,0,1-5.12-5.12,45.32,45.32,0,1,0-90.63,0,5.12,5.12,0,0,1-10.24,0,55.56,55.56,0,1,1,111.11,0,5.12,5.12,0,0,1-5.12,5.12Z" transform="translate(-0.04 -0.02)"/></svg>