<svg t="1708779760801" class="icon" viewBox="0 0 1024 1024" version="1.1" xmlns="http://www.w3.org/2000/svg" p-id="11546" width="200" height="200"><path d="M630.510933 1024H393.489067C176.196267 1024 0 891.2896 0 727.586133V538.624c0-101.1712 108.885333-183.159467 243.165867-183.159467h537.668266C915.114667 355.464533 1024 437.4528 1024 538.624v188.962133C1024 891.2896 847.803733 1024 630.510933 1024zM512 486.1952c-64.3072 0-116.462933 45.806933-116.462933 102.263467 0 40.209067 26.487467 75.025067 64.9216 91.682133v167.799467c0 24.917333 23.210667 45.2608 51.541333 45.2608s51.541333-20.343467 51.541333-45.2608V680.1408c38.434133-16.657067 64.853333-51.473067 64.853334-91.682133 0-56.456533-52.087467-102.263467-116.394667-102.263467z m309.521067-173.192533c-33.1776 0-60.074667-20.2752-60.074667-45.2608v-59.460267c0-30.788267-17.271467-59.938133-48.674133-82.193067-32.3584-23.005867-75.434667-35.6352-121.309867-35.6352H432.469333c-45.806933 0-88.8832 12.629333-121.2416 35.6352-31.402667 22.254933-48.674133 51.4048-48.674133 82.193067v59.460267c0 24.9856-26.897067 45.2608-60.074667 45.2608-33.109333 0-60.0064-20.2752-60.0064-45.2608v-59.460267C142.472533 93.457067 272.5888 0 432.469333 0h158.993067c159.9488 0 290.065067 93.457067 290.065067 208.2816v59.460267c0 24.9856-26.897067 45.2608-60.0064 45.2608z" fill="#4b97ff" p-id="11547"></path></svg>