<svg id="图层_1" data-name="图层 1" xmlns="http://www.w3.org/2000/svg" viewBox="0 0 171.43 171.43"><defs><style>.cls-1{fill:#008cff;}.cls-2{fill:#fff;}</style></defs><path class="cls-1" d="M167.67,14.29a18,18,0,0,1,18,18h0V167.67a18,18,0,0,1-18,18H32.33a18,18,0,0,1-18-18h0V32.33a18,18,0,0,1,18-18Z" transform="translate(-14.29 -14.29)"/><path class="cls-2" d="M50.44,87.79,40.36,134V45.28c0-4.57,3-8.27,6.63-8.28H78.47a6,6,0,0,1,4.69,2.43l13.57,17a1.17,1.17,0,0,0,.93.5h47.39c3.67,0,6.63,3.72,6.63,8.29V76.78H62C56.57,76.79,51.86,81.3,50.44,87.79ZM165,86.68a6.19,6.19,0,0,0-5.26-3.26H62c-3,0-5.61,2.5-6.4,6.11l-13.74,63c-1,4.42,1.13,9,4.67,10.18a5.37,5.37,0,0,0,1.73.29H146c3,0,5.61-2.5,6.4-6.11l13.73-63A9.91,9.91,0,0,0,165,86.68Z" transform="translate(-14.29 -14.29)"/></svg>