<svg id="图层_1" data-name="图层 1" xmlns="http://www.w3.org/2000/svg" viewBox="0 0 171.34 171.38"><defs><style>.cls-1{fill:#008cff;}.cls-2{fill:#fff;}</style></defs><path class="cls-1" d="M153.38,0a18,18,0,0,1,18,18h0V153.4a18,18,0,0,1-18,18H18a18,18,0,0,1-18-18H0V18.06a18,18,0,0,1,18-18Z" transform="translate(-0.04 -0.02)"/><path class="cls-2" d="M143.45,97.26c-1.16,6.2-5.56,10.37-10.93,10.37h-.62a7,7,0,0,0-6.92,7.05,6.24,6.24,0,0,0,.31,1.66,9.25,9.25,0,0,0,.32.93A12.87,12.87,0,0,1,121.16,133l-.39.26-.22.13-13.34,7.47a3.18,3.18,0,0,1-.32.16l-.13.06a12.78,12.78,0,0,1-5.2,1.07,13.47,13.47,0,0,1-9.71-4.06,18.28,18.28,0,0,0-4.32-3.3,3.36,3.36,0,0,0-1.58-.39,3,3,0,0,0-1.55.43,18.49,18.49,0,0,0-4.33,3.34,13.43,13.43,0,0,1-9.77,4.14,12.78,12.78,0,0,1-5.1-1l-.12,0-.41-.2-.22-.12-13.81-7.67-.33-.21-.13-.1a12.86,12.86,0,0,1-4.35-15.68c.11-.29.21-.59.3-.89a6.33,6.33,0,0,0,.32-1.67,7,7,0,0,0-6.92-7.05H39c-5.41,0-9.83-4.17-11-10.37a68.21,68.21,0,0,1-1.21-11.58A67.32,67.32,0,0,1,28,74.09c1.16-6.2,5.58-10.37,11-10.37h.54a7,7,0,0,0,6.92-7,10.43,10.43,0,0,0-.63-2.59,12.88,12.88,0,0,1,4.33-15.64l.11-.08.38-.25.22-.13L63.94,30.6c.11-.05.21-.11.32-.15l.13-.07A12.8,12.8,0,0,1,69.6,29.3a13.28,13.28,0,0,1,9.85,4.26A19,19,0,0,0,84,37.16a3,3,0,0,0,2.79,0,19,19,0,0,0,4.66-3.72,13.32,13.32,0,0,1,9.91-4.33,12.72,12.72,0,0,1,5.12,1.05l.12.05.4.19.21.12,13.56,7.59a3.28,3.28,0,0,1,.31.2l.13.09A12.88,12.88,0,0,1,125.6,54.1s-.15.36-.3.9a6.33,6.33,0,0,0-.32,1.67,7,7,0,0,0,6.92,7h.54c5.43,0,9.85,4.16,11,10.36a68.32,68.32,0,0,1,1.21,11.59h0a68.31,68.31,0,0,1-1.21,11.58ZM137.12,75c-.38-2-1.62-4.4-3.84-4.4h-.55A14.59,14.59,0,0,1,118.21,56a13.26,13.26,0,0,1,.63-3.8,18.42,18.42,0,0,1,.63-1.81,5.62,5.62,0,0,0-1.81-6.71l0,0,0,0L103.93,36l0,0h0a6.11,6.11,0,0,0-6.66,1.5c-2.13,2.35-7.33,6.8-11.72,6.8A12.66,12.66,0,0,1,79.13,42a27.59,27.59,0,0,1-5.27-4.37,6.12,6.12,0,0,0-6.68-1.45l0,0,0,0L53.93,43.62l0,0,0,0a5.63,5.63,0,0,0-1.8,6.71c.24.59.45,1.2.63,1.81a13.62,13.62,0,0,1,.63,3.8A14.58,14.58,0,0,1,38.8,70.6h-.56C36,70.61,34.8,73,34.42,75a61,61,0,0,0-1.1,10.36,60.11,60.11,0,0,0,1.1,10.36c.38,2,1.61,4.4,3.83,4.4h.56a14.58,14.58,0,0,1,14.52,14.62,13.26,13.26,0,0,1-.63,3.8,14.92,14.92,0,0,1-.63,1.81,5.61,5.61,0,0,0,1.82,6.71l0,0,0,0,13.9,7.69h0l0,0a6.25,6.25,0,0,0,6.66-1.43c2.1-2.22,7.2-6.41,11.46-6.41s9.3,4.11,11.39,6.28a6.23,6.23,0,0,0,6.68,1.38h0l0,0,13.42-7.51,0,0,0,0a5.62,5.62,0,0,0,1.81-6.71c-.24-.6-.46-1.2-.64-1.81a14,14,0,0,1-.62-3.8,14.58,14.58,0,0,1,14.53-14.62h.61c1.36,0,3.16-1.15,3.77-4.4h0a62,62,0,0,0,1.1-10.36A60,60,0,0,0,137.12,75ZM111,93.28a3,3,0,0,1-.14,1.12,24.27,24.27,0,0,1-9.35,12.22A23.8,23.8,0,0,1,87.79,111,24.24,24.24,0,0,1,64.94,94.48a3,3,0,0,1-.13-1,24.55,24.55,0,0,1,.56-15.9,2.6,2.6,0,0,1,.18-.87A24.18,24.18,0,0,1,87.79,61.81a23.74,23.74,0,0,1,10.12,2.26,24.26,24.26,0,0,1,12.36,12.68,3,3,0,0,1,.2,1.07A24.92,24.92,0,0,1,111,93.28ZM88,68.06a18.3,18.3,0,1,0,8.74,34.3,18.52,18.52,0,0,0-3.44-33.49,18.26,18.26,0,0,0-5.3-.81Z" transform="translate(-0.04 -0.02)"/></svg>