<svg t="1705406715316" class="icon" viewBox="0 0 1024 1024" version="1.1" xmlns="http://www.w3.org/2000/svg" p-id="5146" width="200" height="200"><path d="M384.6656 518.2464s117.6576-290.56 371.5584-259.6352c61.9008 167.1168-156.3136 354.4576-255.488 377.6512-39.424-38.7072-116.0704-118.016-116.0704-118.016z" fill="#D9FFEC" p-id="5147"></path><path d="M591.872 933.0176c-7.3728 0-14.7968-1.1264-22.1184-3.3792-26.2656-8.2432-45.6704-30.1568-50.5344-57.2416l-18.9952-105.0624-23.4496 7.2192c-24.1152 7.424-50.2272 0.9728-68.096-16.896l-149.7088-149.7088a67.84 67.84 0 0 1-16.896-68.096l7.2192-23.4496-105.1136-18.9952c-27.0848-4.9152-49.0496-24.2688-57.2416-50.5344s-1.2288-54.6816 18.2272-74.1888l134.7584-134.7584c13.7216-13.7216 32.7168-21.6064 52.1216-21.6064h0.256c28.16 0.1024 98.6112 0.2048 173.0048-0.4096C660.992 37.8368 884.3264 90.3168 893.952 92.672c7.2704 1.792 13.8752 5.5296 19.1488 10.8032 7.0656 7.0656 12.6464 12.6464 17.4592 61.952 3.2768 33.792 2.9184 68.7104-1.024 103.68-8.3968 74.0864-37.7344 181.9136-128.768 282.112-0.6656 74.3936-0.512 144.8448-0.4096 173.0048 0.0512 19.7632-7.5776 38.4-21.6064 52.3776L643.9424 911.36a73.54368 73.54368 0 0 1-52.0704 21.6576z m-71.168-255.1808c10.1376 0 20.1728 2.7648 29.0304 8.1408 13.6192 8.2944 23.04 22.016 25.856 37.7344l21.504 118.7328 121.2928-121.2928c-0.1024-32.512-0.2048-108.9024 0.6144-186.624 0.1024-10.4448 4.1984-20.48 11.4688-28.0064 126.8736-131.4816 125.0816-279.6032 118.1696-338.4832-58.88-6.9632-207.0016-8.7552-338.4832 118.1184a40.89856 40.89856 0 0 1-28.0064 11.4688c-77.6704 0.8192-154.112 0.7168-186.624 0.6144L174.1312 419.5328l118.7328 21.4528c15.7184 2.8672 29.44 12.288 37.7344 25.9072 8.2944 13.6192 10.3424 30.1568 5.632 45.3632l-13.4144 43.6224 137.8304 137.8304 43.6224-13.4144c5.376-1.6384 10.9056-2.4576 16.4352-2.4576z m-67.9936 18.3296c-0.0512 0.0512-0.0512 0.0512 0 0z" fill="#34333A" p-id="5148"></path><path d="M194.1504 881.92c-17.2032 0-33.7408-6.7584-46.2848-19.2512a65.24928 65.24928 0 0 1-17.5616-60.9792l28.2624-124.16c5.3248-23.296 22.8352-41.8816 45.824-48.4864 22.9376-6.6048 47.7184-0.256 64.6144 16.64l95.8976 95.8976c16.896 16.896 23.296 41.6256 16.64 64.6144a65.6896 65.6896 0 0 1-48.4864 45.824l-124.16 28.2624c-4.9152 1.0752-9.8816 1.6384-14.7456 1.6384z m-3.4304-81.5616c-0.0512 0-0.0512 0 0 0z m41.1648-75.8784l-15.9744 70.144 70.144-15.9744-54.1696-54.1696z" fill="#3AD285" p-id="5149"></path><path d="M749.3632 269.056m-54.9888 0a54.9888 54.9888 0 1 0 109.9776 0 54.9888 54.9888 0 1 0-109.9776 0Z" fill="#45D18B" p-id="5150"></path></svg>