<svg id="图层_1" data-name="图层 1" xmlns="http://www.w3.org/2000/svg" viewBox="0 0 171.34 171.38"><defs><style>.cls-1{fill:#008cff;}.cls-2{fill:#fff;}</style></defs><path class="cls-1" d="M153.38,0a18,18,0,0,1,18,18h0V153.38a18,18,0,0,1-18,18H18a18,18,0,0,1-18-18H0V18A18,18,0,0,1,18,0Z" transform="translate(-0.04)"/><path class="cls-2" d="M131.24,39a2.17,2.17,0,0,1,2.17,2.16v90.55a2.18,2.18,0,0,1-2.17,2.17H40.69a2.17,2.17,0,0,1-2.16-2.17V41.19A2.16,2.16,0,0,1,40.69,39h90.55m0-8.65H40.69A10.81,10.81,0,0,0,29.88,41.19v90.55a10.81,10.81,0,0,0,10.81,10.81h90.55a10.81,10.81,0,0,0,10.81-10.81V41.19A10.81,10.81,0,0,0,131.24,30.38Z" transform="translate(-0.04)"/><path class="cls-2" d="M137.19,64.8H31.91v8.65H137.19Z" transform="translate(-0.04)"/><path class="cls-2" d="M73.08,67.68H64.43v74.87h8.65Zm34.56,0H99v74.87h8.65Z" transform="translate(-0.04)"/><path class="cls-2" d="M139,99.22H33.67v8.65H139Z" transform="translate(-0.04)"/></svg>